<svg width="38" height="37" viewBox="0 0 38 37" fill="none" xmlns="http://www.w3.org/2000/svg">
<ellipse cx="18.8871" cy="18.4977" rx="18.52" ry="18.4977" fill="#D2D1D1"/>
<path d="M26.6852 10.9119C24.8088 9.03327 22.3098 8 19.6541 8C14.1725 8 9.71204 12.4551 9.71204 17.9301C9.71204 19.6791 10.1688 21.3878 11.0377 22.8952L9.62695 28.0392L14.898 26.657C16.3491 27.4488 17.9837 27.8648 19.6496 27.8648H19.6541C25.1312 27.8648 29.6902 23.4096 29.6902 17.9346C29.6902 15.2821 28.5617 12.7906 26.6852 10.9119ZM19.6541 26.1918C18.1673 26.1918 16.7118 25.7937 15.4444 25.0423L15.1444 24.8633L12.0184 25.6819L12.8514 22.6358L12.6544 22.3227C11.8259 21.0076 11.3914 19.4912 11.3914 17.9301C11.3914 13.3811 15.0996 9.67739 19.6586 9.67739C21.8665 9.67739 23.94 10.5362 25.4984 12.0973C27.0569 13.6584 28.0153 15.7294 28.0108 17.9346C28.0108 22.4882 24.2087 26.1918 19.6541 26.1918ZM24.1863 20.0101C23.94 19.8849 22.7174 19.2855 22.489 19.205C22.2606 19.12 22.0949 19.0797 21.9292 19.3302C21.7635 19.5807 21.2887 20.1353 21.141 20.3053C20.9976 20.4708 20.8499 20.4932 20.6035 20.3679C19.1436 19.6388 18.1852 19.0663 17.2223 17.4157C16.9671 16.9774 17.4776 17.0087 17.9523 16.0604C18.0329 15.8949 17.9926 15.7518 17.9299 15.6265C17.8672 15.5013 17.3701 14.2801 17.1641 13.7836C16.9626 13.3005 16.7566 13.3676 16.6043 13.3587C16.461 13.3498 16.2953 13.3498 16.1296 13.3498C15.9639 13.3498 15.6952 13.4124 15.4668 13.6584C15.2384 13.9089 14.598 14.5083 14.598 15.7294C14.598 16.9505 15.4892 18.1314 15.6101 18.2969C15.7355 18.4624 17.3612 20.9673 19.8556 22.0453C21.432 22.7252 22.0501 22.7834 22.8383 22.6671C23.3175 22.5955 24.3072 22.0677 24.5132 21.4862C24.7192 20.9047 24.7192 20.4082 24.6565 20.3053C24.5983 20.1935 24.4326 20.1309 24.1863 20.0101Z" fill="white"/>
</svg>
