<svg width="38" height="37" viewBox="0 0 38 37" fill="none" xmlns="http://www.w3.org/2000/svg">
<ellipse cx="18.7036" cy="18.4977" rx="18.52" ry="18.4977" fill="#D2D1D1"/>
<path d="M19.0022 13.6286C16.1645 13.6286 13.8756 15.8036 13.8756 18.5C13.8756 21.1964 16.1645 23.3714 19.0022 23.3714C21.8399 23.3714 24.1288 21.1964 24.1288 18.5C24.1288 15.8036 21.8399 13.6286 19.0022 13.6286ZM19.0022 21.667C17.1684 21.667 15.6693 20.2467 15.6693 18.5C15.6693 16.7533 17.164 15.333 19.0022 15.333C20.8405 15.333 22.3352 16.7533 22.3352 18.5C22.3352 20.2467 20.836 21.667 19.0022 21.667ZM25.5343 13.4294C25.5343 14.0611 24.9989 14.5656 24.3385 14.5656C23.6737 14.5656 23.1428 14.0568 23.1428 13.4294C23.1428 12.8019 23.6782 12.2931 24.3385 12.2931C24.9989 12.2931 25.5343 12.8019 25.5343 13.4294ZM28.9297 14.5826C28.8539 13.0605 28.488 11.7123 27.3146 10.6015C26.1456 9.49074 24.7267 9.14309 23.1249 9.06677C21.4741 8.97774 16.5259 8.97774 14.8751 9.06677C13.2777 9.13885 11.8589 9.4865 10.6854 10.5973C9.51199 11.7081 9.15059 13.0563 9.07027 14.5783C8.97658 16.147 8.97658 20.8488 9.07027 22.4174C9.14612 23.9395 9.51199 25.2877 10.6854 26.3985C11.8589 27.5093 13.2733 27.8569 14.8751 27.9332C16.5259 28.0223 21.4741 28.0223 23.1249 27.9332C24.7267 27.8612 26.1456 27.5135 27.3146 26.3985C28.4835 25.2877 28.8494 23.9395 28.9297 22.4174C29.0234 20.8488 29.0234 16.1512 28.9297 14.5826ZM26.797 24.1006C26.449 24.9316 25.7752 25.5717 24.8963 25.9067C23.58 26.4027 20.4568 26.2882 19.0022 26.2882C17.5477 26.2882 14.42 26.3985 13.1082 25.9067C12.2337 25.576 11.56 24.9358 11.2075 24.1006C10.6854 22.8499 10.8059 19.8821 10.8059 18.5C10.8059 17.1179 10.6899 14.1459 11.2075 12.8994C11.5555 12.0684 12.2292 11.4283 13.1082 11.0933C14.4244 10.5973 17.5477 10.7118 19.0022 10.7118C20.4568 10.7118 23.5845 10.6015 24.8963 11.0933C25.7708 11.424 26.4445 12.0642 26.797 12.8994C27.319 14.1501 27.1985 17.1179 27.1985 18.5C27.1985 19.8821 27.319 22.8541 26.797 24.1006Z" fill="white"/>
</svg>
