<svg width="38" height="37" viewBox="0 0 38 37" fill="none" xmlns="http://www.w3.org/2000/svg">
<ellipse cx="18.52" cy="18.4977" rx="18.52" ry="18.4977" fill="#D2D1D1"/>
<path d="M27.3228 14.8976C27.4606 14.4761 27.3228 14.1659 26.6599 14.1659H24.4661C23.9074 14.1659 23.6504 14.4323 23.5126 14.729C23.5126 14.729 22.3953 17.1939 20.816 18.7923C20.3058 19.2542 20.0711 19.4026 19.7918 19.4026C19.654 19.4026 19.4417 19.2542 19.4417 18.8327V14.8976C19.4417 14.3918 19.2853 14.1659 18.8234 14.1659H15.3745C15.0244 14.1659 14.8158 14.4019 14.8158 14.6211C14.8158 15.0999 15.6054 15.2112 15.6873 16.56V19.4869C15.6873 20.1276 15.5607 20.2456 15.2814 20.2456C14.5364 20.2456 12.7263 17.7705 11.6536 14.9381C11.4376 14.3884 11.2253 14.1659 10.6629 14.1659H8.46916C7.84343 14.1659 7.7168 14.4323 7.7168 14.729C7.7168 15.255 8.46171 17.8683 11.1844 21.3212C12.9982 23.6783 15.5533 24.9562 17.8774 24.9562C19.2741 24.9562 19.4454 24.673 19.4454 24.1841C19.4454 21.9316 19.3188 21.7191 20.019 21.7191C20.343 21.7191 20.9017 21.8675 22.2053 23.0039C23.6951 24.3526 23.9409 24.9562 24.7752 24.9562H26.969C27.5947 24.9562 27.9113 24.673 27.7288 24.1132C27.3117 22.9364 24.4922 20.5153 24.3655 20.3535C24.0415 19.9758 24.1346 19.8072 24.3655 19.47C24.3693 19.4666 27.0472 16.0542 27.3228 14.8976Z" fill="white"/>
</svg>
