<svg width="34" height="34" viewBox="0 0 34 34" fill="none" xmlns="http://www.w3.org/2000/svg">
<circle cx="17" cy="17" r="17" fill="#EEEEEE"/>
<path fill-rule="evenodd" clip-rule="evenodd" d="M11.0342 9.54395H22.964C23.7876 9.54395 24.4552 10.2116 24.4552 11.0352V22.965C24.4552 23.7886 23.7876 24.4562 22.964 24.4562H11.0342C10.2106 24.4562 9.54297 23.7886 9.54297 22.965V11.0352C9.54297 10.2116 10.2106 9.54395 11.0342 9.54395ZM11.0342 11.0352V19.6737L14.0166 16.6912L16.6263 19.3009L21.4727 14.4544L22.964 15.9457V11.0352H11.0342ZM11.0342 22.965V21.7826L14.0166 18.8002L18.1815 22.965H11.0342ZM22.964 22.965H20.2904L17.6807 20.3553L21.4727 16.5633L22.964 18.0546V22.965ZM18.4903 14.0176C18.4903 12.7823 17.4889 11.7808 16.2535 11.7808C15.0181 11.7808 14.0167 12.7823 14.0167 14.0176C14.0167 15.253 15.0181 16.2545 16.2535 16.2545C17.4889 16.2545 18.4903 15.253 18.4903 14.0176ZM15.5078 14.0176C15.5078 13.6059 15.8417 13.272 16.2535 13.272C16.6653 13.272 16.9991 13.6059 16.9991 14.0176C16.9991 14.4294 16.6653 14.7633 16.2535 14.7633C15.8417 14.7633 15.5078 14.4294 15.5078 14.0176Z" fill="#FF0000"/>
</svg>
