<svg width="38" height="37" viewBox="0 0 38 37" fill="none" xmlns="http://www.w3.org/2000/svg">
<ellipse cx="19.4789" cy="18.4977" rx="18.52" ry="18.4977" fill="#D2D1D1"/>
<path d="M24.0926 21.0684C22.9941 21.7492 21.4827 22.0192 20.4845 22.1209L21.3224 22.9269L24.3812 25.9123C25.4997 27.0313 23.6796 28.7803 22.5491 27.7004C21.7834 26.9413 20.6609 25.8458 19.4902 24.7033L16.4314 27.6965C15.3009 28.7725 13.4808 27.0078 14.6113 25.9084C15.3891 25.1493 16.4995 24.0538 17.6702 22.923L18.496 22.117C17.5098 22.0153 15.9744 21.7609 14.8639 21.0645C13.5569 20.2428 12.9837 19.7615 13.4888 18.756C13.7855 18.1847 14.5993 17.7035 15.6777 18.533C15.6777 18.533 17.133 19.6637 19.4822 19.6637C21.8315 19.6637 23.2868 18.533 23.2868 18.533C24.3652 17.7074 25.175 18.1847 25.4757 18.756C25.9728 19.7615 25.3995 20.2428 24.0926 21.0684ZM14.2786 13.0748C14.2786 10.2694 16.6158 8 19.4782 8C22.3406 8 24.6779 10.2694 24.6779 13.0748C24.6779 15.8684 22.3406 18.1378 19.4782 18.1378C16.6158 18.1378 14.2786 15.8684 14.2786 13.0748ZM16.9245 13.0748C16.9245 14.4481 18.0711 15.5671 19.4782 15.5671C20.8854 15.5671 22.0319 14.4481 22.0319 13.0748C22.0319 11.6897 20.8854 10.5706 19.4782 10.5706C18.0711 10.5706 16.9245 11.6897 16.9245 13.0748Z" fill="white"/>
</svg>
