<svg width="22" height="22" viewBox="0 0 22 22" fill="none" xmlns="http://www.w3.org/2000/svg">
<path fill-rule="evenodd" clip-rule="evenodd" d="M9.91127 4.33871L9.8364 4.25628C9.51196 3.94086 9.00145 3.91659 8.64839 4.18349L8.5636 4.25628L2.2636 10.3813L2.22635 10.4197L2.1767 10.4791L2.1122 10.5764L2.0641 10.6751L2.03226 10.7673L2.00622 10.8967L2 11L2.00251 11.0658L2.01822 11.1756L2.04476 11.2731L2.08431 11.3703L2.1314 11.4556L2.19772 11.5473L2.2636 11.6187L8.5636 17.7437C8.91508 18.0854 9.48492 18.0854 9.8364 17.7437C10.1608 17.4283 10.1858 16.932 9.91127 16.5887L9.8364 16.5063L5.0744 11.875H19.1C19.5971 11.875 20 11.4832 20 11C20 10.5168 19.5971 10.125 19.1 10.125H5.0726L9.8364 5.49372C10.1608 5.1783 10.1858 4.68197 9.91127 4.33871L9.8364 4.25628L9.91127 4.33871Z" fill="#FF0000"/>
</svg>
