<svg width="20" height="20" viewBox="0 0 20 20" fill="none" xmlns="http://www.w3.org/2000/svg">
<path fill-rule="evenodd" clip-rule="evenodd" d="M9.99935 3.33337C12.9892 3.33337 15.6288 5.36039 17.9254 9.2863L18.097 9.5843L18.3327 10L17.9254 10.7138C15.6288 14.6397 12.9892 16.6667 9.99935 16.6667C7.00947 16.6667 4.36988 14.6397 2.0733 10.7138L1.9017 10.4158L1.66602 10L1.9017 9.5843C4.23812 5.463 6.93473 3.33337 9.99935 3.33337ZM9.99937 5.00004C7.7468 5.00004 5.60628 6.59632 3.58714 10C5.60628 13.4038 7.7468 15 9.99937 15C12.1908 15 14.2734 13.4918 16.2386 10.2873L16.4117 10.0002L16.2383 9.71282C14.2701 6.50644 12.1876 5.00004 9.99937 5.00004ZM9.99935 7.50004C11.3801 7.50004 12.4993 8.61933 12.4993 10C12.4993 11.3808 11.3801 12.5 9.99935 12.5C8.61864 12.5 7.49935 11.3808 7.49935 10C7.49935 8.61933 8.61864 7.50004 9.99935 7.50004Z" fill="#949494"/>
</svg>
