<svg width="31" height="30" viewBox="0 0 31 30" fill="none" xmlns="http://www.w3.org/2000/svg">
<path fill-rule="evenodd" clip-rule="evenodd" d="M7.23989 25C6.35957 25 5.77081 24.1223 6.06462 23.3233L6.12186 23.191L7.56613 20.3024C8.11287 19.209 8.42373 18.0144 8.48043 16.7962L8.48989 16.3893V12.5C8.48989 8.78367 11.1929 5.69866 14.7401 5.10366L14.7399 3.75C14.7399 3.05964 15.2995 2.5 15.9899 2.5C16.6802 2.5 17.2399 3.05964 17.2399 3.75L17.2409 5.10387C20.689 5.68284 23.3391 8.61465 23.4837 12.1918L23.4899 12.5V16.3893C23.4899 17.6119 23.7461 18.8193 24.2402 19.9343L24.4137 20.3024L25.8579 23.191C26.2516 23.9784 25.7299 24.8975 24.8838 24.992L24.7399 25H18.4899C18.4899 26.3807 17.3706 27.5 15.9899 27.5C14.6092 27.5 13.4899 26.3807 13.4899 25H7.23989ZM15.9898 7.5C13.3121 7.5 11.126 9.60496 10.996 12.2505L10.9898 12.5V16.3893C10.9898 17.9903 10.6482 19.5711 9.9896 21.0267L9.80215 21.4205L9.26239 22.5H22.7173L22.1775 21.4205C21.4616 19.9885 21.0602 18.4218 20.9983 16.8254L20.9898 16.3893V12.5C20.9898 9.73858 18.7513 7.5 15.9898 7.5Z" fill="#8D9CAA"/>
</svg>
