<svg width="31" height="30" viewBox="0 0 31 30" fill="none" xmlns="http://www.w3.org/2000/svg">
<path fill-rule="evenodd" clip-rule="evenodd" d="M22.2402 2.5C22.9306 2.5 23.4902 3.05964 23.4902 3.75V5H24.7402C26.8113 5 28.4902 6.67893 28.4902 8.75V23.75C28.4902 25.8211 26.8113 27.5 24.7402 27.5H7.24023C5.16917 27.5 3.49023 25.8211 3.49023 23.75V8.75C3.49023 6.67893 5.16917 5 7.24023 5H8.49023V3.75C8.49023 3.05964 9.04988 2.5 9.74023 2.5C10.4306 2.5 10.9902 3.05964 10.9902 3.75V5H20.9902V3.75C20.9902 3.05964 21.5499 2.5 22.2402 2.5ZM5.9902 15V23.75C5.9902 24.4404 6.54984 25 7.2402 25H24.7402C25.4306 25 25.9902 24.4404 25.9902 23.75V15H5.9902ZM5.9902 12.5H25.9902V8.75C25.9902 8.05964 25.4306 7.5 24.7402 7.5H23.4902V8.75C23.4902 9.44036 22.9306 10 22.2402 10C21.5498 10 20.9902 9.44036 20.9902 8.75V7.5H10.9902V8.75C10.9902 9.44036 10.4306 10 9.7402 10C9.04985 10 8.4902 9.44036 8.4902 8.75V7.5H7.2402C6.54984 7.5 5.9902 8.05964 5.9902 8.75V12.5Z" fill="#8D9CAA"/>
</svg>
