<svg width="17" height="13" viewBox="0 0 17 13" fill="none" xmlns="http://www.w3.org/2000/svg">
<path fill-rule="evenodd" clip-rule="evenodd" d="M9.52825 0.314519L9.59896 0.237976C9.90537 -0.0549175 10.3875 -0.0774477 10.721 0.170385L10.801 0.237976L16.751 5.92548L16.7862 5.96119L16.8331 6.01631L16.894 6.1067L16.9395 6.19829L16.9695 6.28388L16.9941 6.40405L17 6.5L16.9976 6.56113L16.9828 6.66309L16.9577 6.75362L16.9204 6.84387L16.8759 6.92308L16.8133 7.00818L16.751 7.07452L10.801 12.762C10.4691 13.0793 9.93091 13.0793 9.59896 12.762C9.29255 12.4691 9.26898 12.0083 9.52825 11.6895L9.59896 11.613L14.0964 7.3125H0.85C0.380558 7.3125 0 6.94873 0 6.5C0 6.05127 0.380558 5.6875 0.85 5.6875H14.0981L9.59896 1.38702C9.29255 1.09413 9.26898 0.633256 9.52825 0.314519L9.59896 0.237976L9.52825 0.314519Z" fill="#BCBCBC"/>
</svg>
