<svg width="196" height="79" viewBox="0 0 196 79" fill="none" xmlns="http://www.w3.org/2000/svg">
<path d="M24.0409 23.7323H0V29.8696H8.22372V50.8723H15.8215V29.8696H24.0409V23.7323ZM31.4431 34.1249V29.9H24.0018V50.8723H31.4431V44.3611C31.4431 39.6581 33.4643 37.3066 37.5109 37.3066H38.1368V29.5523C35.0334 29.4219 32.7992 30.9432 31.4431 34.1249ZM50.2029 29.4306C47.0951 29.4306 44.5393 30.4825 42.5269 32.5906C40.5144 34.6987 39.5103 37.3023 39.5103 40.4014C39.5103 43.683 40.5666 46.3344 42.6833 48.3469C44.8001 50.3637 47.5254 51.3721 50.8679 51.3721C54.732 51.3721 57.8007 49.9508 60.0696 47.1081L55.9578 43.7352C54.4973 45.1565 52.9282 45.8694 51.2591 45.8694C48.8033 45.8694 47.2777 44.7175 46.6778 42.4182H60.852C60.8781 42.0835 60.8911 41.5793 60.8911 40.9056C60.8911 37.5978 59.9784 34.8595 58.1484 32.6862C56.3229 30.5173 53.6758 29.4306 50.2029 29.4306ZM46.5605 38.6584C46.7691 37.4935 47.1951 36.572 47.834 35.8853C48.473 35.2029 49.2771 34.8595 50.242 34.8595C51.2591 34.8595 52.0937 35.2029 52.75 35.8853C53.402 36.572 53.7932 37.4935 53.9236 38.6584H46.5605ZM77.8515 29.4306C75.3956 29.4306 73.2832 30.5694 71.5055 32.8427V29.8957H64.0641V50.8679H71.5055V39.5103C71.5055 38.3976 71.7923 37.5326 72.3661 36.9111C72.9398 36.2895 73.6961 35.9809 74.6393 35.9809C75.5521 35.9809 76.278 36.2895 76.8126 36.9111C77.3473 37.5326 77.6167 38.3976 77.6167 39.5103V50.8679H85.0581V37.1458C85.0581 34.7682 84.4191 32.8861 83.1412 31.5039C81.8547 30.1261 80.0943 29.4306 77.8515 29.4306ZM103.931 32.4558C102.153 30.439 99.9885 29.4306 97.4284 29.4306C94.8161 29.4306 92.6124 30.4347 90.8086 32.4341C89.0091 34.4379 88.105 37.0936 88.105 40.4014C88.105 43.683 89.0135 46.3257 90.826 48.3295C92.6385 50.3333 94.8509 51.333 97.4632 51.333C99.9712 51.333 102.123 50.2464 103.927 48.0774V50.8679H111.368V22.5674H103.931V32.4558ZM102.792 43.8178C101.958 44.7219 100.936 45.1739 99.7365 45.1739C98.5368 45.1739 97.511 44.7219 96.6634 43.8178C95.8158 42.9137 95.3899 41.7749 95.3899 40.4057C95.3899 39.0105 95.8072 37.8586 96.6417 36.9545C97.4762 36.0505 98.5064 35.5984 99.7365 35.5984C100.936 35.5984 101.953 36.0461 102.792 36.9371C103.627 37.8282 104.044 38.9583 104.044 40.3275C104.048 41.7488 103.631 42.9093 102.792 43.8178ZM133.262 39.0105C133.262 40.8708 132.81 42.266 131.91 43.1962C131.01 44.1264 129.776 44.5915 128.211 44.5915C126.646 44.5915 125.412 44.109 124.512 43.1397C123.612 42.1704 123.16 40.7317 123.16 38.8149V23.7323H115.445V38.967C115.445 43.1006 116.553 46.204 118.774 48.273C120.991 50.342 124.112 51.3765 128.133 51.3765C132.179 51.3765 135.331 50.3376 137.591 48.2556C139.847 46.1736 140.977 43.0137 140.977 38.7758V23.7323H133.262V39.0105ZM165.57 32.4384C163.744 30.4347 161.523 29.435 158.911 29.435C156.429 29.435 154.29 30.5216 152.486 32.6906V29.9H145.049V57.0748H152.491V48.3121C154.238 50.3289 156.394 51.3373 158.954 51.3373C161.566 51.3373 163.779 50.3376 165.591 48.3339C167.404 46.3301 168.312 43.6743 168.312 40.3666C168.308 37.0849 167.395 34.4422 165.57 32.4384ZM159.732 43.8178C158.898 44.7219 157.863 45.1739 156.637 45.1739C155.438 45.1739 154.416 44.7219 153.582 43.8178C152.747 42.9137 152.33 41.7749 152.33 40.4057C152.33 39.0105 152.747 37.8586 153.582 36.9545C154.416 36.0505 155.433 35.5984 156.637 35.5984C157.863 35.5984 158.893 36.0461 159.732 36.9371C160.567 37.8282 160.984 38.9583 160.984 40.3275C160.988 41.7488 160.567 42.9093 159.732 43.8178Z" fill="#222222"/>
<path fill-rule="evenodd" clip-rule="evenodd" d="M150.834 14.9826L152.646 13.1745C152.612 13.7612 152.59 14.348 152.59 14.9392C152.59 14.9522 152.59 14.9652 152.59 14.9826H150.834ZM181.021 43.3614C181.647 43.3614 182.273 43.3397 182.89 43.3006L181.021 45.1739V43.3614ZM188.371 37.8065L186.176 40.0058C184.498 40.3492 182.773 40.5231 181.021 40.5274V38.9496C183.555 38.9496 186.028 38.5584 188.371 37.8065ZM181.021 34.5422C187.024 34.5379 192.405 31.8213 195.999 27.5529V29.8827C192.166 33.7294 186.867 36.1157 181.021 36.1157V34.5422ZM181.021 31.7126V30.1391C188.554 30.1348 194.821 24.619 195.999 17.4124V22.45C193.243 27.9311 187.567 31.7082 181.021 31.7126ZM195.999 7.43699V12.4747C194.965 6.17213 190.04 1.16053 183.777 0H188.619C191.8 1.62996 194.395 4.24225 195.999 7.43699ZM181.064 12.1182C182.629 12.1182 183.894 13.3874 183.894 14.9479C183.894 16.5126 182.625 17.7775 181.064 17.7775C181.051 17.7775 181.038 17.7775 181.021 17.7775V14.987H178.235C178.235 14.9739 178.235 14.9609 178.235 14.9479C178.235 13.3831 179.5 12.1182 181.064 12.1182ZM181.008 6.98929C185.394 6.98929 188.962 10.5578 188.962 14.9435C188.962 19.3249 185.402 22.8891 181.021 22.8977V21.3199C184.533 21.3112 187.384 18.4555 187.384 14.9435C187.384 11.4271 184.524 8.5671 181.008 8.5671C177.492 8.5671 174.631 11.4271 174.631 14.9435C174.631 14.9566 174.631 14.9739 174.631 14.987H173.058C173.058 14.9739 173.058 14.9566 173.058 14.9435C173.054 10.5578 176.622 6.98929 181.008 6.98929ZM181.008 2.58186C187.823 2.58186 193.37 8.12809 193.37 14.9435C193.37 21.7546 187.832 27.2965 181.021 27.3052V25.7274C186.963 25.7187 191.792 20.8853 191.792 14.9435C191.792 8.99741 186.954 4.15967 181.008 4.15967C175.062 4.15967 170.224 8.99741 170.224 14.9435C170.224 14.9566 170.224 14.9739 170.224 14.987H168.651C168.651 14.9739 168.651 14.9566 168.651 14.9435C168.646 8.12809 174.192 2.58186 181.008 2.58186ZM193.682 0.00434418H195.999V2.33411C195.295 1.49087 194.517 0.712835 193.682 0.00434418ZM165.817 14.9435C165.817 14.9566 165.817 14.9696 165.817 14.987H164.243C164.243 14.9739 164.243 14.9609 164.243 14.9435C164.243 8.4367 167.968 2.7818 173.401 0.00434418H178.243C171.18 1.30832 165.817 7.51088 165.817 14.9435ZM168.333 0.00434418C164.1 3.60331 161.405 8.96263 161.405 14.9435C161.405 14.9566 161.405 14.9696 161.405 14.987H159.831C159.831 14.9739 159.831 14.9609 159.831 14.9435C159.831 9.11911 162.196 3.83802 166.012 0.00434418H168.333ZM157.002 14.9435C157.002 14.9566 157.002 14.9696 157.002 14.987H155.428C155.428 14.9739 155.428 14.9609 155.428 14.9435C155.428 13.2353 155.593 11.5532 155.919 9.91453L158.101 7.7369C157.376 10.0362 157.002 12.4616 157.002 14.9435Z" fill="#E30B17"/>
<path d="M3.066 65.926H4.782V73.479H7.694V65.926H9.41V73.479H12.322V65.926H14.038V75H3.066V65.926ZM16.0636 68.214H17.7276V70.879H18.8196L19.8466 69.098C20.0372 68.7687 20.2322 68.539 20.4316 68.409C20.6309 68.279 20.8952 68.214 21.2246 68.214H21.9656V69.54H21.2376L20.5226 70.788C20.4012 71.0133 20.2842 71.1737 20.1716 71.269C20.0589 71.3557 19.9246 71.4207 19.7686 71.464V71.529C19.9246 71.5637 20.0632 71.6243 20.1846 71.711C20.3146 71.7977 20.4402 71.9493 20.5616 72.166L21.4066 73.674H22.1216V75H21.2766C20.9472 75 20.6742 74.9307 20.4576 74.792C20.2496 74.6533 20.0502 74.415 19.8596 74.077L18.8196 72.192H17.7276V75H16.0636V68.214ZM26.1178 75.156C25.6325 75.156 25.1948 75.0737 24.8048 74.909C24.4235 74.7443 24.0942 74.506 23.8168 74.194C23.5482 73.882 23.3402 73.5093 23.1928 73.076C23.0455 72.634 22.9718 72.14 22.9718 71.594C22.9718 71.048 23.0455 70.5583 23.1928 70.125C23.3402 69.6917 23.5482 69.3233 23.8168 69.02C24.0942 68.708 24.4235 68.4697 24.8048 68.305C25.1948 68.1403 25.6325 68.058 26.1178 68.058C26.6032 68.058 27.0408 68.1403 27.4308 68.305C27.8208 68.4697 28.1502 68.708 28.4188 69.02C28.6962 69.3233 28.9085 69.6917 29.0558 70.125C29.2032 70.5583 29.2768 71.048 29.2768 71.594C29.2768 72.14 29.2032 72.634 29.0558 73.076C28.9085 73.5093 28.6962 73.882 28.4188 74.194C28.1502 74.506 27.8208 74.7443 27.4308 74.909C27.0408 75.0737 26.6032 75.156 26.1178 75.156ZM26.1178 73.817C26.5598 73.817 26.9065 73.6827 27.1578 73.414C27.4092 73.1453 27.5348 72.751 27.5348 72.231V70.97C27.5348 70.4587 27.4092 70.0687 27.1578 69.8C26.9065 69.5313 26.5598 69.397 26.1178 69.397C25.6845 69.397 25.3422 69.5313 25.0908 69.8C24.8395 70.0687 24.7138 70.4587 24.7138 70.97V72.231C24.7138 72.751 24.8395 73.1453 25.0908 73.414C25.3422 73.6827 25.6845 73.817 26.1178 73.817ZM29.8702 73.674H30.7542C30.8408 73.544 30.9188 73.388 30.9882 73.206C31.0662 73.024 31.1312 72.803 31.1832 72.543C31.2352 72.2743 31.2742 71.958 31.3002 71.594C31.3348 71.2213 31.3522 70.788 31.3522 70.294V68.214H36.5132V75H34.8492V69.54H32.9382V70.372C32.9382 70.9873 32.9165 71.5247 32.8732 71.984C32.8298 72.4347 32.7648 72.8247 32.6782 73.154C32.6002 73.4833 32.5005 73.7607 32.3792 73.986C32.2665 74.2027 32.1408 74.3803 32.0022 74.519C31.8028 74.7183 31.5775 74.857 31.3262 74.935C31.0748 75.013 30.7672 75.052 30.4032 75.052H29.8702V73.674ZM43.412 75C43.048 75 42.7577 74.896 42.541 74.688C42.333 74.4713 42.203 74.1853 42.151 73.83H42.073C41.9603 74.272 41.7307 74.6057 41.384 74.831C41.0373 75.0477 40.6083 75.156 40.097 75.156C39.4037 75.156 38.8707 74.974 38.498 74.61C38.1253 74.246 37.939 73.7607 37.939 73.154C37.939 72.452 38.1903 71.932 38.693 71.594C39.1957 71.2473 39.9107 71.074 40.838 71.074H41.995V70.58C41.995 70.1987 41.8953 69.904 41.696 69.696C41.4967 69.488 41.176 69.384 40.734 69.384C40.344 69.384 40.0277 69.4707 39.785 69.644C39.551 69.8087 39.3517 70.008 39.187 70.242L38.199 69.358C38.4503 68.968 38.784 68.656 39.2 68.422C39.616 68.1793 40.1663 68.058 40.851 68.058C41.7697 68.058 42.4673 68.266 42.944 68.682C43.4207 69.098 43.659 69.696 43.659 70.476V73.674H44.335V75H43.412ZM40.656 73.947C41.0287 73.947 41.345 73.8647 41.605 73.7C41.865 73.5353 41.995 73.2927 41.995 72.972V72.075H40.929C40.0623 72.075 39.629 72.3523 39.629 72.907V73.128C39.629 73.4053 39.7157 73.6133 39.889 73.752C40.071 73.882 40.3267 73.947 40.656 73.947ZM51.497 75.156C51.003 75.156 50.561 75.0737 50.171 74.909C49.7897 74.7443 49.4603 74.4887 49.183 74.142C48.9143 73.7867 48.7063 73.336 48.559 72.79C48.4203 72.244 48.351 71.594 48.351 70.84C48.351 69.9473 48.4203 69.176 48.559 68.526C48.6977 67.876 48.9143 67.3343 49.209 66.901C49.5037 66.459 49.8807 66.121 50.34 65.887C50.7993 65.653 51.3453 65.5057 51.978 65.445L54.162 65.237V66.849L51.939 67.057C51.601 67.0917 51.3193 67.161 51.094 67.265C50.8687 67.3603 50.6823 67.5077 50.535 67.707C50.3963 67.9063 50.2923 68.1707 50.223 68.5C50.1623 68.8207 50.119 69.2193 50.093 69.696H50.145C50.3097 69.2453 50.535 68.9073 50.821 68.682C51.1157 68.4567 51.51 68.344 52.004 68.344C52.3767 68.344 52.7233 68.4177 53.044 68.565C53.3733 68.7123 53.655 68.929 53.889 69.215C54.123 69.4923 54.305 69.8347 54.435 70.242C54.5737 70.6493 54.643 71.113 54.643 71.633C54.643 72.1703 54.5693 72.6557 54.422 73.089C54.2833 73.5223 54.0753 73.895 53.798 74.207C53.5293 74.5103 53.2 74.7443 52.81 74.909C52.42 75.0737 51.9823 75.156 51.497 75.156ZM51.523 73.817C51.9477 73.817 52.2857 73.6827 52.537 73.414C52.7883 73.1453 52.914 72.7597 52.914 72.257V71.282C52.914 70.762 52.784 70.3677 52.524 70.099C52.2727 69.8303 51.926 69.696 51.484 69.696C51.0333 69.696 50.6867 69.826 50.444 70.086C50.21 70.3373 50.093 70.6883 50.093 71.139V72.218C50.093 72.738 50.2187 73.1367 50.47 73.414C50.73 73.6827 51.081 73.817 51.523 73.817ZM56.1173 68.214H57.7423V71.243L57.5993 72.829H57.6513L58.4443 71.386L60.5633 68.214H62.0583V75H60.4333V71.971L60.5763 70.372H60.5243L59.7313 71.828L57.6123 75H56.1173V68.214ZM63.9884 68.214H65.6524V69.332H65.7044C65.8257 68.942 66.0554 68.6343 66.3934 68.409C66.7314 68.175 67.1257 68.058 67.5764 68.058C68.443 68.058 69.1017 68.3657 69.5524 68.981C70.0117 69.5877 70.2414 70.4587 70.2414 71.594C70.2414 72.738 70.0117 73.6177 69.5524 74.233C69.1017 74.8483 68.443 75.156 67.5764 75.156C67.1257 75.156 66.7314 75.039 66.3934 74.805C66.064 74.571 65.8344 74.259 65.7044 73.869H65.6524V77.6H63.9884V68.214ZM67.0434 73.778C67.4767 73.778 67.8277 73.635 68.0964 73.349C68.365 73.063 68.4994 72.6773 68.4994 72.192V71.022C68.4994 70.5367 68.365 70.151 68.0964 69.865C67.8277 69.5703 67.4767 69.423 67.0434 69.423C66.6447 69.423 66.311 69.5227 66.0424 69.722C65.7824 69.9213 65.6524 70.1857 65.6524 70.515V72.673C65.6524 73.0283 65.7824 73.3013 66.0424 73.492C66.311 73.6827 66.6447 73.778 67.0434 73.778ZM71.2146 73.674H71.9296L72.6706 72.153C72.844 71.8063 73.0953 71.5983 73.4246 71.529V71.464C73.104 71.386 72.857 71.1693 72.6836 70.814L72.0596 69.54H71.3446V68.214H72.0726C72.4106 68.214 72.688 68.2833 72.9046 68.422C73.1213 68.5607 73.312 68.7947 73.4766 69.124L74.3346 70.879H75.2966V68.214H76.9606V70.879H77.9096L78.7806 69.124C78.9453 68.7947 79.136 68.5607 79.3526 68.422C79.5693 68.2833 79.8423 68.214 80.1716 68.214H80.8996V69.54H80.1846L79.5736 70.814C79.4003 71.1693 79.1533 71.386 78.8326 71.464V71.529C79.162 71.5983 79.4133 71.8063 79.5866 72.153L80.3276 73.674H81.0426V75H80.2236C79.8943 75 79.617 74.9307 79.3916 74.792C79.175 74.6533 78.98 74.402 78.8066 74.038L77.9096 72.192H76.9606V75H75.2966V72.192H74.3346L73.4376 74.038C73.2643 74.402 73.0693 74.6533 72.8526 74.792C72.636 74.9307 72.363 75 72.0336 75H71.2146V73.674ZM85.1142 75.156C84.6115 75.156 84.1608 75.0737 83.7622 74.909C83.3722 74.7357 83.0385 74.4973 82.7612 74.194C82.4925 73.882 82.2845 73.5093 82.1372 73.076C81.9898 72.634 81.9162 72.14 81.9162 71.594C81.9162 71.0567 81.9855 70.5713 82.1242 70.138C82.2715 69.7047 82.4795 69.3363 82.7482 69.033C83.0168 68.721 83.3462 68.4827 83.7362 68.318C84.1262 68.1447 84.5682 68.058 85.0622 68.058C85.5908 68.058 86.0502 68.149 86.4402 68.331C86.8302 68.513 87.1508 68.76 87.4022 69.072C87.6535 69.384 87.8398 69.748 87.9612 70.164C88.0912 70.5713 88.1562 71.009 88.1562 71.477V72.023H83.6452V72.192C83.6452 72.686 83.7838 73.0847 84.0612 73.388C84.3385 73.6827 84.7502 73.83 85.2962 73.83C85.7122 73.83 86.0502 73.7433 86.3102 73.57C86.5788 73.3967 86.8172 73.1757 87.0252 72.907L87.9222 73.908C87.6448 74.298 87.2635 74.6057 86.7782 74.831C86.3015 75.0477 85.7468 75.156 85.1142 75.156ZM85.0882 69.306C84.6462 69.306 84.2952 69.4533 84.0352 69.748C83.7752 70.0427 83.6452 70.424 83.6452 70.892V70.996H86.4272V70.879C86.4272 70.411 86.3102 70.034 86.0762 69.748C85.8508 69.4533 85.5215 69.306 85.0882 69.306ZM89.6202 68.214H93.3512C93.9579 68.214 94.4215 68.37 94.7422 68.682C95.0629 68.9853 95.2232 69.397 95.2232 69.917C95.2232 70.775 94.7552 71.269 93.8192 71.399V71.451C94.3739 71.503 94.7899 71.6633 95.0672 71.932C95.3445 72.2007 95.4832 72.5603 95.4832 73.011C95.4832 73.6003 95.3012 74.0813 94.9372 74.454C94.5732 74.818 94.0662 75 93.4162 75H89.6202V68.214ZM93.0782 73.791C93.3035 73.791 93.4769 73.7347 93.5982 73.622C93.7195 73.5007 93.7802 73.3317 93.7802 73.115V72.751C93.7802 72.5343 93.7195 72.3697 93.5982 72.257C93.4769 72.1357 93.3035 72.075 93.0782 72.075H91.2452V73.791H93.0782ZM92.8832 71.022C93.0825 71.022 93.2385 70.9657 93.3512 70.853C93.4725 70.7403 93.5332 70.5843 93.5332 70.385V70.06C93.5332 69.8607 93.4725 69.7047 93.3512 69.592C93.2385 69.4793 93.0825 69.423 92.8832 69.423H91.2452V71.022H92.8832ZM99.738 75.156C99.2526 75.156 98.815 75.0737 98.425 74.909C98.0436 74.7443 97.7143 74.506 97.437 74.194C97.1683 73.882 96.9603 73.5093 96.813 73.076C96.6656 72.634 96.592 72.14 96.592 71.594C96.592 71.048 96.6656 70.5583 96.813 70.125C96.9603 69.6917 97.1683 69.3233 97.437 69.02C97.7143 68.708 98.0436 68.4697 98.425 68.305C98.815 68.1403 99.2526 68.058 99.738 68.058C100.223 68.058 100.661 68.1403 101.051 68.305C101.441 68.4697 101.77 68.708 102.039 69.02C102.316 69.3233 102.529 69.6917 102.676 70.125C102.823 70.5583 102.897 71.048 102.897 71.594C102.897 72.14 102.823 72.634 102.676 73.076C102.529 73.5093 102.316 73.882 102.039 74.194C101.77 74.506 101.441 74.7443 101.051 74.909C100.661 75.0737 100.223 75.156 99.738 75.156ZM99.738 73.817C100.18 73.817 100.527 73.6827 100.778 73.414C101.029 73.1453 101.155 72.751 101.155 72.231V70.97C101.155 70.4587 101.029 70.0687 100.778 69.8C100.527 69.5313 100.18 69.397 99.738 69.397C99.3046 69.397 98.9623 69.5313 98.711 69.8C98.4596 70.0687 98.334 70.4587 98.334 70.97V72.231C98.334 72.751 98.4596 73.1453 98.711 73.414C98.9623 73.6827 99.3046 73.817 99.738 73.817ZM104.372 68.214H105.997V71.243L105.854 72.829H105.906L106.699 71.386L108.818 68.214H110.313V75H108.688V71.971L108.831 70.372H108.779L107.986 71.828L105.867 75H104.372V68.214ZM107.349 67.408C106.803 67.408 106.365 67.2953 106.036 67.07C105.707 66.836 105.447 66.5067 105.256 66.082L104.983 65.471L106.309 64.951L106.738 66.199C106.807 66.225 106.898 66.2467 107.011 66.264C107.124 66.2727 107.236 66.277 107.349 66.277C107.462 66.277 107.574 66.2727 107.687 66.264C107.8 66.2467 107.891 66.225 107.96 66.199L108.389 64.951L109.715 65.471L109.442 66.082C109.251 66.5067 108.991 66.836 108.662 67.07C108.333 67.2953 107.895 67.408 107.349 67.408ZM116.681 69.54H114.614V68.214H120.412V69.54H118.345V75H116.681V69.54ZM124.24 75.156C123.755 75.156 123.317 75.0737 122.927 74.909C122.546 74.7443 122.216 74.506 121.939 74.194C121.67 73.882 121.462 73.5093 121.315 73.076C121.168 72.634 121.094 72.14 121.094 71.594C121.094 71.048 121.168 70.5583 121.315 70.125C121.462 69.6917 121.67 69.3233 121.939 69.02C122.216 68.708 122.546 68.4697 122.927 68.305C123.317 68.1403 123.755 68.058 124.24 68.058C124.725 68.058 125.163 68.1403 125.553 68.305C125.943 68.4697 126.272 68.708 126.541 69.02C126.818 69.3233 127.031 69.6917 127.178 70.125C127.325 70.5583 127.399 71.048 127.399 71.594C127.399 72.14 127.325 72.634 127.178 73.076C127.031 73.5093 126.818 73.882 126.541 74.194C126.272 74.506 125.943 74.7443 125.553 74.909C125.163 75.0737 124.725 75.156 124.24 75.156ZM124.24 73.817C124.682 73.817 125.029 73.6827 125.28 73.414C125.531 73.1453 125.657 72.751 125.657 72.231V70.97C125.657 70.4587 125.531 70.0687 125.28 69.8C125.029 69.5313 124.682 69.397 124.24 69.397C123.807 69.397 123.464 69.5313 123.213 69.8C122.962 70.0687 122.836 70.4587 122.836 70.97V72.231C122.836 72.751 122.962 73.1453 123.213 73.414C123.464 73.6827 123.807 73.817 124.24 73.817ZM128.874 68.214H130.538V69.332H130.59C130.711 68.942 130.941 68.6343 131.279 68.409C131.617 68.175 132.011 68.058 132.462 68.058C133.329 68.058 133.987 68.3657 134.438 68.981C134.897 69.5877 135.127 70.4587 135.127 71.594C135.127 72.738 134.897 73.6177 134.438 74.233C133.987 74.8483 133.329 75.156 132.462 75.156C132.011 75.156 131.617 75.039 131.279 74.805C130.95 74.571 130.72 74.259 130.59 73.869H130.538V77.6H128.874V68.214ZM131.929 73.778C132.362 73.778 132.713 73.635 132.982 73.349C133.251 73.063 133.385 72.6773 133.385 72.192V71.022C133.385 70.5367 133.251 70.151 132.982 69.865C132.713 69.5703 132.362 69.423 131.929 69.423C131.53 69.423 131.197 69.5227 130.928 69.722C130.668 69.9213 130.538 70.1857 130.538 70.515V72.673C130.538 73.0283 130.668 73.3013 130.928 73.492C131.197 73.6827 131.53 73.778 131.929 73.778ZM136.669 68.214H141.167V69.54H138.333V75H136.669V68.214ZM144.959 75.156C144.473 75.156 144.036 75.0737 143.646 74.909C143.264 74.7443 142.935 74.506 142.658 74.194C142.389 73.882 142.181 73.5093 142.034 73.076C141.886 72.634 141.813 72.14 141.813 71.594C141.813 71.048 141.886 70.5583 142.034 70.125C142.181 69.6917 142.389 69.3233 142.658 69.02C142.935 68.708 143.264 68.4697 143.646 68.305C144.036 68.1403 144.473 68.058 144.959 68.058C145.444 68.058 145.882 68.1403 146.272 68.305C146.662 68.4697 146.991 68.708 147.26 69.02C147.537 69.3233 147.749 69.6917 147.897 70.125C148.044 70.5583 148.118 71.048 148.118 71.594C148.118 72.14 148.044 72.634 147.897 73.076C147.749 73.5093 147.537 73.882 147.26 74.194C146.991 74.506 146.662 74.7443 146.272 74.909C145.882 75.0737 145.444 75.156 144.959 75.156ZM144.959 73.817C145.401 73.817 145.747 73.6827 145.999 73.414C146.25 73.1453 146.376 72.751 146.376 72.231V70.97C146.376 70.4587 146.25 70.0687 145.999 69.8C145.747 69.5313 145.401 69.397 144.959 69.397C144.525 69.397 144.183 69.5313 143.932 69.8C143.68 70.0687 143.555 70.4587 143.555 70.97V72.231C143.555 72.751 143.68 73.1453 143.932 73.414C144.183 73.6827 144.525 73.817 144.959 73.817ZM149.593 68.214H153.324C153.931 68.214 154.394 68.37 154.715 68.682C155.036 68.9853 155.196 69.397 155.196 69.917C155.196 70.775 154.728 71.269 153.792 71.399V71.451C154.347 71.503 154.763 71.6633 155.04 71.932C155.317 72.2007 155.456 72.5603 155.456 73.011C155.456 73.6003 155.274 74.0813 154.91 74.454C154.546 74.818 154.039 75 153.389 75H149.593V68.214ZM153.051 73.791C153.276 73.791 153.45 73.7347 153.571 73.622C153.692 73.5007 153.753 73.3317 153.753 73.115V72.751C153.753 72.5343 153.692 72.3697 153.571 72.257C153.45 72.1357 153.276 72.075 153.051 72.075H151.218V73.791H153.051ZM152.856 71.022C153.055 71.022 153.211 70.9657 153.324 70.853C153.445 70.7403 153.506 70.5843 153.506 70.385V70.06C153.506 69.8607 153.445 69.7047 153.324 69.592C153.211 69.4793 153.055 69.423 152.856 69.423H151.218V71.022H152.856ZM156.214 73.674H157.098C157.185 73.544 157.263 73.388 157.332 73.206C157.41 73.024 157.475 72.803 157.527 72.543C157.579 72.2743 157.618 71.958 157.644 71.594C157.679 71.2213 157.696 70.788 157.696 70.294V68.214H162.857V75H161.193V69.54H159.282V70.372C159.282 70.9873 159.26 71.5247 159.217 71.984C159.174 72.4347 159.109 72.8247 159.022 73.154C158.944 73.4833 158.844 73.7607 158.723 73.986C158.61 74.2027 158.485 74.3803 158.346 74.519C158.147 74.7183 157.921 74.857 157.67 74.935C157.419 75.013 157.111 75.052 156.747 75.052H156.214V73.674ZM164.764 68.214H166.389V71.243L166.246 72.829H166.298L167.091 71.386L169.21 68.214H170.705V75H169.08V71.971L169.223 70.372H169.171L168.378 71.828L166.259 75H164.764V68.214Z" fill="#222222"/>
</svg>
