<svg width="50" height="34" viewBox="0 0 50 34" fill="none" xmlns="http://www.w3.org/2000/svg">
<path d="M9.83982 34C6.40732 34 3.89016 33.2444 2.28833 31.7333C0.762776 30.1467 0 28.1822 0 25.84V23.46C0 21.2689 0.305111 19.0778 0.915332 16.8867C1.60183 14.62 2.47902 12.4667 3.54691 10.4267C4.69108 8.38667 6.02593 6.49778 7.55149 4.76C9.07704 2.94666 10.717 1.36 12.4714 0H23.1121C20.595 2.26666 18.4211 4.57111 16.5904 6.91333C14.836 9.25556 13.5011 11.8622 12.5858 14.7333C15.0267 15.1867 16.8192 16.2067 17.9634 17.7933C19.1076 19.3044 19.6796 21.0422 19.6796 23.0067V25.84C19.6796 28.1822 18.8787 30.1467 17.2769 31.7333C15.7513 33.2444 13.2723 34 9.83982 34ZM36.7277 34C33.2952 34 30.778 33.2444 29.1762 31.7333C27.6507 30.1467 26.8879 28.1822 26.8879 25.84V23.46C26.8879 21.2689 27.193 19.0778 27.8032 16.8867C28.4897 14.62 29.3669 12.4667 30.4348 10.4267C31.579 8.38667 32.9138 6.49778 34.4394 4.76C35.9649 2.94666 37.6049 1.36 39.3593 0H50C47.4828 2.26666 45.3089 4.57111 43.4783 6.91333C41.7239 9.25556 40.389 11.8622 39.4737 14.7333C41.9146 15.1867 43.7071 16.2067 44.8513 17.7933C45.9954 19.3044 46.5675 21.0422 46.5675 23.0067V25.84C46.5675 28.1822 45.7666 30.1467 44.1648 31.7333C42.6392 33.2444 40.1602 34 36.7277 34Z" fill="#E6E6E6"/>
</svg>
